:SAMPLES-PER-SECOND 30
:FULLY-SPECIFIED
:DEGREES
142
root  -60.74 41.5025 -6.00404 154.145 -88.3734 -156.89
RightUpLeg  1.32591 -6.64623 -2.0552
RightLeg  3.7427 -2.33372 3.70016
RightFoot  -1.72 0.207384 -2.61178
RightToes  8.73114e-010 0 -3.6325e-017
Spine  -1.97295 0.285196 3.28777
Spine1  3.99884 0.440899 -0.839708
HEad  -1.24195 2.92797 -1.88233
LeftShoulder1  0.804957 -1.49829 -8.54846
LeftArm  -18.411 7.1185 5.6347
LeftForeArm  12.1451 -9.7969 -2.5536
LeftHand  -0.244104 0.0205437 5.32207
RightShoulder  0.29096 -1.15649 4.5089
RightArm  -19.7251 0.589165 -1.87676
RightForeArm  -1.72176 4.38167 4.13935
RightHand  -0.60509 0.364018 -12.2772
LeftUpLeg  5.31212 4.23944 2.71523
LeftLeg  4.0129 3.66302 -2.2753
LeftFoot  -6.43273 -0.0172925 1.49105
LeftToes  -7.64008e-011 1.13257e-010 -2.15718e-012
143
root  -60.8317 41.5051 -6.05136 147.202 -88.7148 -149.66
RightUpLeg  1.2421 -6.55574 -1.93636
RightLeg  3.65702 -2.80451 3.63934
RightFoot  -1.86247 0.204184 -2.61154
RightToes  8.73114e-010 0 -3.6325e-017
Spine  -2.11747 0.154336 2.96913
Spine1  4.16394 0.193113 -0.26605
HEad  -1.7915 3.17171 -2.08395
LeftShoulder1  0.832695 -1.56767 -8.91287
LeftArm  -17.7686 7.23482 5.66699
LeftForeArm  12.6387 -10.2442 -2.80154
LeftHand  -0.244104 0.0205437 5.32207
RightShoulder  0.306817 -1.04492 4.60226
RightArm  -19.7303 0.624973 -1.74658
RightForeArm  -1.33032 4.54744 4.12782
RightHand  -0.562218 -0.020706 -12.1929
LeftUpLeg  5.10148 4.20582 2.77928
LeftLeg  4.00081 3.28398 -2.25495
LeftFoot  -6.39959 -0.0132638 1.42842
LeftToes  -7.64008e-011 1.13257e-010 -2.15718e-012
144
root  -60.9147 41.5058 -6.08752 136.203 -88.9324 -138.526
RightUpLeg  1.31396 -6.47756 -1.79794
RightLeg  3.54444 -3.20905 3.60892
RightFoot  -1.98223 0.195115 -2.54471
RightToes  8.73114e-010 0 -3.6325e-017
Spine  -2.0194 -0.00862694 2.9058
Spine1  4.20856 -0.0198987 -0.0258769
HEad  -2.07036 3.4189 -2.29176
LeftShoulder1  0.821347 -1.50204 -8.89702
LeftArm  -17.3348 7.38793 5.44746
LeftForeArm  12.9663 -10.4282 -2.94173
LeftHand  -0.244104 0.0205437 5.32207
RightShoulder  0.319497 -1.00101 4.92761
RightArm  -19.5503 0.928598 -1.89941
RightForeArm  -1.13158 4.59738 4.2036
RightHand  -0.493913 -0.533726 -11.8017
LeftUpLeg  4.98179 4.24922 2.90817
LeftLeg  4.13904 2.90661 -2.22122
LeftFoot  -6.46833 -0.0138959 1.43825
LeftToes  -7.64008e-011 1.13257e-010 -2.15718e-012
145
root  -60.9991 41.5057 -6.11448 133.303 -88.9542 -135.61
RightUpLeg  1.44037 -6.47218 -1.7445
RightLeg  3.54626 -3.29683 3.60633
RightFoot  -2.10471 0.190667 -2.53134
RightToes  8.73114e-010 0 -3.6325e-017
Spine  -1.83135 -0.0739932 2.97302
Spine1  4.23925 -0.088262 0.0147883
HEad  -2.13682 3.60736 -2.51715
LeftShoulder1  0.800759 -1.37933 -8.8839
LeftArm  -17.4093 7.16761 5.21275
LeftForeArm  13.1029 -9.9008 -2.88498
LeftHand  -0.244104 0.0205437 5.32207
RightShoulder  0.32898 -0.964983 5.14468
RightArm  -19.2901 1.217 -2.03946
RightForeArm  -1.14053 4.52895 4.30544
RightHand  -0.456799 -0.776109 -11.4678
LeftUpLeg  5.09189 4.32425 3.01094
LeftLeg  4.14988 2.76235 -2.25679
LeftFoot  -6.5292 -0.0174442 1.49341
LeftToes  -7.64008e-011 1.13257e-010 -2.15718e-012
146
root  -61.0833 41.5051 -6.13487 138.33 -88.9033 -140.556
RightUpLeg  1.44652 -6.47729 -1.73898
RightLeg  3.61045 -3.21002 3.58833
RightFoot  -2.20659 0.191618 -2.58684
RightToes  8.73114e-010 0 -3.6325e-017
Spine  -1.81359 -0.0620167 3.05051
Spine1  4.32182 -0.0738827 0.0204452
HEad  -2.14356 3.7068 -2.59627
LeftShoulder1  0.827617 -1.46913 -9.15358
LeftArm  -17.5462 6.99186 5.32557
LeftForeArm  12.978 -9.2455 -2.77493
LeftHand  -0.244104 0.0205437 5.32207
RightShoulder  0.337121 -0.898965 5.12718
RightArm  -19.3493 1.31923 -2.04363
RightForeArm  -0.807169 4.50177 4.28089
RightHand  -0.488317 -0.419396 -11.4135
LeftUpLeg  5.23524 4.35028 3.04126
LeftLeg  3.9799 2.82813 -2.32881
LeftFoot  -6.51946 -0.0175923 1.49572
LeftToes  -7.64008e-011 1.13257e-010 -2.15718e-012
147
root  -61.1584 41.5042 -6.1483 139.948 -88.8812 -141.956
RightUpLeg  1.32947 -6.43724 -1.69149
RightLeg  3.59143 -3.22334 3.56311
RightFoot  -2.2481 0.192844 -2.63184
RightToes  8.73114e-010 0 -3.6325e-017
Spine  -1.94959 -0.0754611 3.257
Spine1  4.35505 -0.0586072 -0.160206
HEad  -2.13477 3.69094 -2.39425
LeftShoulder1  0.901769 -1.83452 -9.44545
LeftArm  -17.3515 7.27293 5.68626
LeftForeArm  12.6249 -9.03176 -2.76852
LeftHand  -0.244104 0.0205437 5.32207
RightShoulder  0.343299 -0.849303 5.11665
RightArm  -19.7478 1.30185 -2.06159
RightForeArm  0.173115 4.61297 4.12034
RightHand  -0.526439 0.0517524 -11.2782
LeftUpLeg  5.18381 4.32212 3.04098
LeftLeg  3.8503 2.90372 -2.34088
LeftFoot  -6.51237 -0.0144413 1.44673
LeftToes  -7.64008e-011 1.13257e-010 -2.15718e-012
148
root  -61.2245 41.503 -6.15709 138.13 -88.8805 -139.91
RightUpLeg  1.21512 -6.38935 -1.61675
RightLeg  3.52458 -3.31445 3.55701
RightFoot  -2.2671 0.192626 -2.64589
RightToes  8.73114e-010 0 -3.6325e-017
Spine  -2.07203 -0.128558 3.58844
Spine1  4.32973 -0.0433732 -0.556989
HEad  -2.08868 3.60951 -2.07489
LeftShoulder1  0.947832 -2.11555 -9.42446
LeftArm  -16.9764 7.66042 5.85831
LeftForeArm  12.3087 -9.06492 -2.85267
LeftHand  -0.244104 0.0205437 5.32207
RightShoulder  0.342637 -0.875717 5.23508
RightArm  -20.0941 1.34137 -2.11593
RightForeArm  1.08978 4.74961 3.98605
RightHand  -0.522716 0.160019 -10.9929
LeftUpLeg  5.03962 4.28302 3.04346
LeftLeg  3.83959 2.94563 -2.29203
LeftFoot  -6.55458 -0.0137046 1.43528
LeftToes  -7.64008e-011 1.13257e-010 -2.15718e-012
